<svg xmlns="http://www.w3.org/2000/svg" viewBox="0 0 64 64">
  <defs>
    <linearGradient id="sea" x1="0" y1="0" x2="0" y2="1">
      <stop offset="0%" stop-color="#2fb6d6" />
      <stop offset="100%" stop-color="#0a5b8a" />
    </linearGradient>
    <linearGradient id="sand" x1="0" y1="0" x2="1" y2="1">
      <stop offset="0%" stop-color="#ffe6a8" />
      <stop offset="100%" stop-color="#f5c46a" />
    </linearGradient>
  </defs>
  <rect width="64" height="64" rx="14" fill="url(#sea)" />
  <path d="M4 46c6 0 6 4 12 4s6-4 12-4 6 4 12 4 6-4 12-4 6 4 8 4v10H4z" fill="#083b5c" opacity=".55" />
  <ellipse cx="32" cy="41" rx="19" ry="9" fill="#ffe9b8" />
  <path d="M20 41c2-9 8-14 12-14s10 5 12 14z" fill="#3fbf7f" />
  <rect x="30.5" y="14" width="3" height="16" rx="1.5" fill="#8a5a2b" />
  <path d="M33.5 15l11 4-11 4z" fill="#ff7a59" />
  <circle cx="24" cy="34" r="2" fill="#0a5b8a" />
</svg>
